<svg id="Layer_1" data-name="Layer 1" xmlns="http://www.w3.org/2000/svg" viewBox="0 0 1200 500"><defs><style>.cls-1{fill:#ffa6b2;}</style></defs><title>bubbleArtboard 1 copy 2</title><circle class="cls-1" cx="73.7" cy="59.69" r="23.67"/><circle class="cls-1" cx="1060.1" cy="113.85" r="29.4"/><circle class="cls-1" cx="507.29" cy="76.11" r="38.11"/><circle class="cls-1" cx="780.98" cy="103.45" r="43.77"/><circle class="cls-1" cx="310.48" cy="59.69" r="24.58"/><circle class="cls-1" cx="188.44" cy="113.85" r="22.99"/><circle class="cls-1" cx="211.43" cy="59.69" r="8.77"/><circle class="cls-1" cx="376.26" cy="143.25" r="8.77"/><circle class="cls-1" cx="757.98" cy="229.2" r="23.67"/><circle class="cls-1" cx="974.54" cy="237.97" r="24.58"/><circle class="cls-1" cx="780.98" cy="321.54" r="22.99"/><circle class="cls-1" cx="469.19" cy="246.75" r="22.99"/><circle class="cls-1" cx="875.49" cy="237.97" r="8.77"/><circle class="cls-1" cx="600" cy="178.98" r="8.77"/><circle class="cls-1" cx="1040.32" cy="321.54" r="8.77"/><circle class="cls-1" cx="1139.33" cy="237.97" r="8.77"/><circle class="cls-1" cx="872.82" cy="38" r="8.77"/><circle class="cls-1" cx="1030.7" cy="36.01" r="8.77"/><circle class="cls-1" cx="688.48" cy="38" r="24.58"/><circle class="cls-1" cx="927.72" cy="89.27" r="21.19"/><circle class="cls-1" cx="149.35" cy="244.43" r="43.77"/><circle class="cls-1" cx="241.19" cy="178.98" r="8.77"/><circle class="cls-1" cx="296.09" cy="230.25" r="21.19"/></svg>