<?xml version="1.0" encoding="utf-8"?>
<!-- Generator: Adobe Illustrator 20.0.0, SVG Export Plug-In . SVG Version: 6.00 Build 0)  -->
<svg version="1.1" id="Layer_1" xmlns="http://www.w3.org/2000/svg" xmlns:xlink="http://www.w3.org/1999/xlink" x="0px" y="0px"
	 viewBox="0 0 314.7 312" enable-background="new 0 0 314.7 312" xml:space="preserve">
<path fill="#495E67" d="M239.2,156.7c26.6-9.6,38.5-1.9,37.4-12.8c-1.1-10.9-11.2-0.6-39.4-4.4c24-14.9,37.3-9.8,33.9-20.3
	c-3.4-10.4-11.1,1.8-39.4,3.8c20.4-19.5,34.4-17.4,29-26.9c-5.5-9.5-10.5,4-37.8,12c15.9-23.4,30.1-24.2,22.7-32.3
	c-7.3-8.2-9.5,6.1-34.5,19.6c10.7-26.2,24.4-29.9,15.5-36.3c-8.9-6.4-8,8-29.7,26.3c5-27.8,17.6-34.3,7.6-38.8
	c-10-4.5-6.1,9.4-23.5,31.9c-0.9-28.2,10.1-37.2-0.6-39.5c-10.7-2.3-4,10.5-16.4,36.1c-6.7-27.4,2.2-38.5-8.8-38.5
	c-11,0-1.8,11.1-8.5,38.7c-12.3-25.4-5.9-38.1-16.6-35.8c-10.7,2.3,0.6,11.3-0.3,39.6c-17.3-22.3-13.7-36.1-23.7-31.6
	c-10,4.5,2.9,10.9,7.9,38.8C92.6,68,93.3,53.8,84.4,60.3c-8.9,6.4,5.1,10,15.8,36.3C75.4,83.2,73.1,69.2,65.8,77.4
	c-7.3,8.2,7.1,8.8,23.1,32.2c-27.1-7.9-32.3-21.1-37.7-11.7c-5.5,9.5,8.7,7.1,29.2,26.7c-28.2-2.1-36-14-39.3-3.6
	c-3.4,10.4,10,5.1,34.2,20.1c-28,3.8-38.1-6.2-39.2,4.7c-1.1,10.9,10.9,2.9,37.6,12.5c-26.6,9.6-38.5,1.9-37.4,12.8
	c1.1,10.9,11.2,0.6,39.4,4.4c-24,14.9-37.3,9.8-33.9,20.3c3.4,10.4,11.1-1.8,39.4-3.8c-20.4,19.5-34.4,17.4-29,26.9
	c5.5,9.5,10.5-4,37.8-12c-15.9,23.4-30.1,24.2-22.7,32.3c7.3,8.2,9.5-6.1,34.5-19.6C90.9,245.8,77.2,249.6,86,256
	c8.9,6.4,8-8,29.7-26.3c-5,27.8-17.6,34.3-7.6,38.8c10,4.5,6.1-9.4,23.5-31.9c0.9,28.2-10.1,37.2,0.6,39.5
	c10.7,2.3,4-10.5,16.4-36.1c6.7,27.4-2.2,38.5,8.8,38.5c11,0,1.8-11.1,8.5-38.7c12.3,25.4,5.9,38.1,16.6,35.8
	c10.7-2.3-0.6-11.3,0.3-39.6c17.3,22.3,13.7,36.1,23.7,31.6c10-4.5-2.9-10.9-7.9-38.8c21.6,18.3,20.9,32.4,29.7,26
	c8.9-6.4-5.1-10-15.8-36.3c24.9,13.4,27.2,27.4,34.5,19.2c7.3-8.2-7.1-8.8-23.1-32.2c27.1,7.9,32.3,21.1,37.7,11.7
	c5.5-9.5-8.7-7.1-29.2-26.7c28.2,2.1,36,14,39.3,3.6c3.4-10.4-10-5.1-34.2-20.1c28-3.8,38.1,6.2,39.2-4.7
	C277.9,158.3,265.9,166.3,239.2,156.7z M157,161.6c-0.3,0-0.6,0-0.9,0c-0.3-0.1-0.6-0.1-0.8-0.1c-0.3-0.1-0.5-0.2-0.8-0.3
	c-0.3-0.2-0.5-0.3-0.7-0.5c-0.2-0.2-0.4-0.4-0.6-0.6c-0.2-0.3-0.3-0.5-0.5-0.7c-0.1-0.3-0.2-0.6-0.3-0.8c0-0.3-0.1-0.6-0.1-0.8
	c0-0.3,0-0.6,0-0.9c0.1-0.3,0.2-0.5,0.2-0.8c0.1-0.3,0.3-0.5,0.4-0.8c0.2-0.2,0.4-0.4,0.5-0.7c0.2-0.2,0.5-0.4,0.7-0.5
	c0.3-0.1,0.5-0.3,0.8-0.4c0.3-0.1,0.5-0.1,0.8-0.2c0.3,0,0.6,0,0.9,0c0.3,0.1,0.6,0.1,0.8,0.1c0.3,0.1,0.5,0.2,0.8,0.3
	c0.3,0.2,0.5,0.3,0.7,0.5c0.2,0.2,0.4,0.4,0.6,0.6c0.2,0.3,0.3,0.5,0.5,0.7c0.1,0.3,0.2,0.6,0.3,0.8c0,0.3,0.1,0.6,0.1,0.8
	c0,0.3,0,0.6,0,0.9c-0.1,0.3-0.2,0.5-0.2,0.8c-0.1,0.3-0.3,0.5-0.4,0.8c-0.2,0.2-0.4,0.4-0.5,0.7c-0.2,0.2-0.5,0.4-0.7,0.5
	c-0.3,0.1-0.5,0.3-0.8,0.4C157.5,161.4,157.2,161.5,157,161.6z"/>
<circle fill="#75868C" cx="155.6" cy="157.6" r="64.4"/>
<g>
	<path fill="none" d="M158.6,161c0.2-0.2,0.4-0.4,0.7-0.5c0.2-0.2,0.3-0.4,0.5-0.7c0.1-0.3,0.2-0.5,0.4-0.8c0.1-0.3,0.1-0.5,0.2-0.8
		c0-0.3,0-0.6,0-0.9c-0.1-0.3-0.1-0.5-0.1-0.8c-0.1-0.3-0.2-0.5-0.3-0.8c-0.2-0.2-0.3-0.5-0.5-0.7c-0.2-0.2-0.4-0.4-0.6-0.6
		c-0.2-0.1-0.5-0.3-0.7-0.5c-0.2-0.1-0.5-0.2-0.8-0.3c-0.3,0-0.6-0.1-0.8-0.1c-0.3,0-0.6,0-0.9,0c-0.3,0.1-0.5,0.2-0.8,0.2
		c-0.2,0.1-0.5,0.3-0.8,0.4c-0.2,0.2-0.4,0.4-0.7,0.5c-0.2,0.2-0.3,0.4-0.5,0.7c-0.1,0.3-0.2,0.5-0.4,0.8c-0.1,0.3-0.1,0.5-0.2,0.8
		c0,0.3,0,0.6,0,0.9c0.1,0.3,0.1,0.5,0.1,0.8c0.1,0.3,0.2,0.5,0.3,0.8c0.2,0.2,0.3,0.5,0.5,0.7c0.2,0.2,0.4,0.4,0.6,0.6
		c0.2,0.1,0.5,0.3,0.7,0.5c0.2,0.1,0.5,0.2,0.8,0.3c0.3,0,0.6,0.1,0.8,0.1c0.3,0,0.6,0,0.9,0c0.3-0.1,0.5-0.2,0.8-0.2
		C158,161.2,158.3,161.1,158.6,161z"/>
</g>
<g>
	<g>
		<g>
			<circle fill="#FFFFFF" cx="155.6" cy="22.6" r="7.6"/>
		</g>
		<g>
			
				<ellipse transform="matrix(0.2079 -0.9781 0.9781 0.2079 120.6856 199.8047)" fill="#FFFFFF" cx="183.7" cy="25.4" rx="7.6" ry="7.6"/>
		</g>
		<g>
			
				<ellipse transform="matrix(0.4067 -0.9135 0.9135 0.4067 93.9085 212.5381)" fill="#FFFFFF" cx="210.6" cy="34" rx="7.6" ry="7.6"/>
		</g>
		<g>
			
				<ellipse transform="matrix(0.5878 -0.809 0.809 0.5878 58.123 209.969)" fill="#FFFFFF" cx="235.1" cy="47.9" rx="7.6" ry="7.6"/>
		</g>
		<g>
			
				<ellipse transform="matrix(0.7431 -0.6691 0.6691 0.7431 21.1544 188.5511)" fill="#FFFFFF" cx="256.2" cy="66.7" rx="7.6" ry="7.6"/>
		</g>
		<g>
			<ellipse transform="matrix(0.866 -0.5 0.5 0.866 -8.1733 148.4249)" fill="#FFFFFF" cx="272.9" cy="89.5" rx="7.6" ry="7.6"/>
		</g>
		<g>
			
				<ellipse transform="matrix(0.9511 -0.309 0.309 0.9511 -21.6696 93.5494)" fill="#FFFFFF" cx="284.5" cy="115.2" rx="7.6" ry="7.6"/>
		</g>
		<g>
			
				<ellipse transform="matrix(0.9945 -0.1045 0.1045 0.9945 -13.3305 31.1475)" fill="#FFFFFF" cx="290.5" cy="142.8" rx="7.6" ry="7.6"/>
		</g>
		<g>
			
				<ellipse transform="matrix(0.1045 -0.9945 0.9945 0.1045 90.2292 442.1544)" fill="#FFFFFF" cx="290.6" cy="171" rx="7.6" ry="7.6"/>
		</g>
		<g>
			
				<ellipse transform="matrix(0.309 -0.9511 0.9511 0.309 7.9923 408.2092)" fill="#FFFFFF" cx="284.9" cy="198.6" rx="7.6" ry="7.6"/>
		</g>
		<g>
			<ellipse transform="matrix(0.5 -0.866 0.866 0.5 -57.5838 349.1471)" fill="#FFFFFF" cx="273.6" cy="224.4" rx="7.6" ry="7.6"/>
		</g>
		<g>
			
				<ellipse transform="matrix(0.6691 -0.7431 0.7431 0.6691 -98.7525 272.9135)" fill="#FFFFFF" cx="257.1" cy="247.4" rx="7.6" ry="7.6"/>
		</g>
		<g>
			
				<ellipse transform="matrix(0.809 -0.5878 0.5878 0.809 -111.438 189.7254)" fill="#FFFFFF" cx="236.2" cy="266.3" rx="7.6" ry="7.6"/>
		</g>
		<g>
			
				<ellipse transform="matrix(0.9135 -0.4067 0.4067 0.9135 -95.8063 110.4346)" fill="#FFFFFF" cx="211.9" cy="280.6" rx="7.6" ry="7.6"/>
		</g>
		<g>
			
				<ellipse transform="matrix(0.9781 -0.2079 0.2079 0.9781 -56.1341 44.8057)" fill="#FFFFFF" cx="185.1" cy="289.4" rx="7.6" ry="7.6"/>
		</g>
		<g>
			<circle fill="#FFFFFF" cx="157" cy="292.5" r="7.6"/>
		</g>
		<g>
			
				<ellipse transform="matrix(0.2079 -0.9781 0.9781 0.2079 -181.2594 355.6319)" fill="#FFFFFF" cx="129" cy="289.7" rx="7.6" ry="7.6"/>
		</g>
		<g>
			
				<ellipse transform="matrix(0.4067 -0.9135 0.9135 0.4067 -196.2908 260.0459)" fill="#FFFFFF" cx="102.1" cy="281.2" rx="7.6" ry="7.6"/>
		</g>
		<g>
			
				<ellipse transform="matrix(0.5878 -0.809 0.809 0.5878 -184.1742 172.8805)" fill="#FFFFFF" cx="77.6" cy="267.2" rx="7.6" ry="7.6"/>
		</g>
		<g>
			
				<ellipse transform="matrix(0.7431 -0.6691 0.6691 0.7431 -151.7004 101.6038)" fill="#FFFFFF" cx="56.5" cy="248.4" rx="7.6" ry="7.6"/>
		</g>
		<g>
			<ellipse transform="matrix(0.866 -0.5 0.5 0.866 -107.4971 50.1264)" fill="#FFFFFF" cx="39.8" cy="225.7" rx="7.6" ry="7.6"/>
		</g>
		<g>
			
				<ellipse transform="matrix(0.9511 -0.309 0.309 0.9511 -60.4047 18.4929)" fill="#FFFFFF" cx="28.2" cy="199.9" rx="7.6" ry="7.6"/>
		</g>
		<g>
			
				<ellipse transform="matrix(0.9945 -0.1045 0.1045 0.9945 -17.8956 3.2614)" fill="#FFFFFF" cx="22.2" cy="172.4" rx="7.6" ry="7.6"/>
		</g>
		<g>
			
				<ellipse transform="matrix(0.1045 -0.9945 0.9945 0.1045 -123.6383 150.98)" fill="#FFFFFF" cx="22" cy="144.1" rx="7.6" ry="7.6"/>
		</g>
		<g>
			
				<ellipse transform="matrix(0.309 -0.9511 0.9511 0.309 -91.6414 106.8967)" fill="#FFFFFF" cx="27.7" cy="116.5" rx="7.6" ry="7.6"/>
		</g>
		<g>
			<ellipse transform="matrix(0.5 -0.866 0.866 0.5 -58.9844 79.1899)" fill="#FFFFFF" cx="39.1" cy="90.7" rx="7.6" ry="7.6"/>
		</g>
		<g>
			
				<ellipse transform="matrix(0.6691 -0.7431 0.7431 0.6691 -31.9751 63.7066)" fill="#FFFFFF" cx="55.6" cy="67.8" rx="7.6" ry="7.6"/>
		</g>
		<g>
			
				<ellipse transform="matrix(0.809 -0.5878 0.5878 0.809 -14.0706 54.238)" fill="#FFFFFF" cx="76.4" cy="48.8" rx="7.6" ry="7.6"/>
		</g>
		<g>
			
				<ellipse transform="matrix(0.9135 -0.4067 0.4067 0.9135 -5.3329 43.9819)" fill="#FFFFFF" cx="100.8" cy="34.5" rx="7.6" ry="7.6"/>
		</g>
		<g>
			
				<ellipse transform="matrix(0.9781 -0.2079 0.2079 0.9781 -2.5504 27.0874)" fill="#FFFFFF" cx="127.6" cy="25.7" rx="7.6" ry="7.6"/>
		</g>
		<g>
			<circle fill="#FFFFFF" cx="155.6" cy="22.6" r="7.6"/>
		</g>
	</g>
</g>
</svg>
